<svg viewBox="0 0 1200 700" preserveAspectRatio="xMidYMid slice" xmlns="http://www.w3.org/2000/svg" role="img" aria-label="Stylised Earth with drifting orbital debris rings">
<defs>
<radialGradient id="earthCore" cx="40%" cy="40%">
<stop offset="0%" stop-color="#3a5a78"/>
<stop offset="55%" stop-color="#1a3a55"/>
<stop offset="100%" stop-color="#0a1a28"/>
</radialGradient>
<radialGradient id="earthHalo" cx="50%" cy="50%">
<stop offset="55%" stop-color="rgba(40,90,130,0)"/>
<stop offset="80%" stop-color="rgba(40,90,130,0.25)"/>
<stop offset="100%" stop-color="rgba(40,90,130,0)"/>
</radialGradient>
<clipPath id="earthClip"><circle cx="850" cy="380" r="220"/></clipPath>
</defs>
<rect width="1200" height="700" fill="#0d0d0d"/>
<g fill="#ffffff">
<circle cx="80"  cy="120" r="0.6" opacity="0.6"/>
<circle cx="200" cy="80"  r="0.4" opacity="0.4"/>
<circle cx="340" cy="200" r="0.8" opacity="0.7"/>
<circle cx="120" cy="320" r="0.5" opacity="0.5"/>
<circle cx="260" cy="480" r="0.7" opacity="0.6"/>
<circle cx="60"  cy="560" r="0.4" opacity="0.4"/>
<circle cx="420" cy="60"  r="0.5" opacity="0.5"/>
<circle cx="540" cy="240" r="0.7" opacity="0.6"/>
<circle cx="980" cy="80"  r="0.6" opacity="0.6"/>
<circle cx="1100" cy="200" r="0.5" opacity="0.5"/>
<circle cx="1140" cy="440" r="0.7" opacity="0.6"/>
<circle cx="1060" cy="600" r="0.4" opacity="0.4"/>
<circle cx="900"  cy="640" r="0.5" opacity="0.5"/>
<circle cx="720"  cy="600" r="0.4" opacity="0.4"/>
<circle cx="180"  cy="660" r="0.6" opacity="0.5"/>
<circle cx="380"  cy="540" r="0.4" opacity="0.4"/>
<circle cx="450"  cy="380" r="0.5" opacity="0.5"/>
<circle cx="40"   cy="240" r="0.4" opacity="0.4"/>
<circle cx="660"  cy="120" r="0.6" opacity="0.5"/>
<circle cx="780"  cy="60"  r="0.4" opacity="0.4"/>
</g>
<circle cx="850" cy="380" r="320" fill="url(#earthHalo)"/>
<circle cx="850" cy="380" r="220" fill="url(#earthCore)"/>
<g clip-path="url(#earthClip)" opacity="0.45">
<path d="M 680 340 Q 740 320 790 350 Q 820 380 800 420 Q 770 440 730 430 Q 700 410 680 380 Z" fill="#2a4a68"/>
<path d="M 860 280 Q 920 290 950 330 Q 960 380 920 400 Q 880 390 860 350 Z" fill="#2a4a68"/>
<path d="M 820 460 Q 880 470 920 510 Q 900 540 850 540 Q 810 520 820 460 Z" fill="#2a4a68"/>
</g>
<circle cx="850" cy="380" r="220" fill="none" stroke="#ffe11f" stroke-width="0.5" opacity="0.25"/>
<g stroke="#ffe11f" fill="none" stroke-width="1.1" opacity="0.55">
<g>
<ellipse cx="850" cy="380" rx="305" ry="55" transform="rotate(-18 850 380)"/>
<animateTransform attributeName="transform" type="rotate" from="0 850 380" to="360 850 380" dur="48s" repeatCount="indefinite"/>
</g>
</g>
<g stroke="#ffe11f" fill="none" stroke-width="0.9" opacity="0.45">
<g>
<ellipse cx="850" cy="380" rx="335" ry="95" transform="rotate(28 850 380)"/>
<animateTransform attributeName="transform" type="rotate" from="0 850 380" to="-360 850 380" dur="72s" repeatCount="indefinite"/>
</g>
</g>
<g stroke="#ffe11f" fill="none" stroke-width="0.7" opacity="0.35">
<g>
<ellipse cx="850" cy="380" rx="370" ry="160" transform="rotate(-8 850 380)"/>
<animateTransform attributeName="transform" type="rotate" from="0 850 380" to="360 850 380" dur="96s" repeatCount="indefinite"/>
</g>
</g>
<g stroke="#ffffff" fill="none" stroke-width="0.5" opacity="0.25">
<g>
<ellipse cx="850" cy="380" rx="410" ry="240" transform="rotate(70 850 380)"/>
<animateTransform attributeName="transform" type="rotate" from="0 850 380" to="-360 850 380" dur="140s" repeatCount="indefinite"/>
</g>
</g>
<g fill="#ffe11f">
<g>
<circle cx="1155" cy="380" r="3"/>
<animateTransform attributeName="transform" type="rotate" from="0 850 380" to="360 850 380" dur="36s" repeatCount="indefinite"/>
</g>
<g>
<circle cx="1185" cy="475" r="2.4"/>
<animateTransform attributeName="transform" type="rotate" from="0 850 380" to="-360 850 380" dur="54s" repeatCount="indefinite"/>
</g>
<g>
<circle cx="1220" cy="380" r="2"/>
<animateTransform attributeName="transform" type="rotate" from="0 850 380" to="360 850 380" dur="78s" repeatCount="indefinite"/>
</g>
</g>
<g fill="#ffffff">
<g>
<circle cx="1090" cy="540" r="1.6" opacity="0.65"/>
<animateTransform attributeName="transform" type="rotate" from="0 850 380" to="360 850 380" dur="60s" repeatCount="indefinite"/>
</g>
<g>
<circle cx="1260" cy="380" r="1.4" opacity="0.55"/>
<animateTransform attributeName="transform" type="rotate" from="0 850 380" to="-360 850 380" dur="118s" repeatCount="indefinite"/>
</g>
</g>
</svg>
